<svg width="28" height="29" viewBox="0 0 28 29" fill="none" xmlns="http://www.w3.org/2000/svg">
<path d="M5.99596 22.8558C7.77154 24.6179 10.0911 25.7417 12.5859 26.0484V14.9303H6.92929V12.1298H12.5859V9.09124C11.6423 8.76093 10.8471 8.11096 10.3407 7.25623C9.83435 6.4015 9.64944 5.39703 9.81867 4.42035C9.98791 3.44368 10.5004 2.55768 11.2655 1.91897C12.0307 1.28025 12.9992 0.929932 14 0.929932C15.0008 0.929932 15.9693 1.28025 16.7345 1.91897C17.4996 2.55768 18.0121 3.44368 18.1813 4.42035C18.3506 5.39703 18.1656 6.4015 17.6593 7.25623C17.1529 8.11096 16.3577 8.76093 15.4141 9.09124V12.1298H21.0707V14.9303H15.4141V26.0484C17.9089 25.7417 20.2285 24.6179 22.004 22.8558L19.996 20.8674H28L23.998 24.8302C21.3461 27.4552 17.7498 28.9299 14 28.9299C10.2502 28.9299 6.65393 27.4552 4.00202 24.8302L0 20.8674H8.00404L5.99596 22.8558ZM14 6.52877C14.3751 6.52877 14.7347 6.38124 14.9999 6.11864C15.2652 5.85604 15.4141 5.49988 15.4141 5.12851C15.4141 4.75714 15.2652 4.40097 14.9999 4.13838C14.7347 3.87578 14.3751 3.72825 14 3.72825C13.6249 3.72825 13.2653 3.87578 13.0001 4.13838C12.7348 4.40097 12.5859 4.75714 12.5859 5.12851C12.5859 5.49988 12.7348 5.85604 13.0001 6.11864C13.2653 6.38124 13.6249 6.52877 14 6.52877Z" fill="#F2F2F2"/>
</svg>
