<svg width="107" height="92" viewBox="0 0 107 92" fill="none" xmlns="http://www.w3.org/2000/svg">
<path d="M35.6759 49.2836C39.6299 53.2445 44.7953 55.7704 50.3508 56.4598V31.4692H37.7543V25.1744H50.3508V18.3445C48.2497 17.602 46.4788 16.1411 45.3512 14.2199C44.2236 12.2987 43.8118 10.0409 44.1886 7.84555C44.5655 5.65024 45.7067 3.65876 47.4106 2.22309C49.1145 0.787421 51.2713 0 53.4999 0C55.7285 0 57.8854 0.787421 59.5893 2.22309C61.2931 3.65876 62.4344 5.65024 62.8112 7.84555C63.1881 10.0409 62.7763 12.2987 61.6487 14.2199C60.5211 16.1411 58.7502 17.602 56.6491 18.3445V25.1744H69.2455V31.4692H56.6491V56.4598C62.2045 55.7704 67.3699 53.2445 71.3239 49.2836L66.8522 44.8143H84.6762L75.7642 53.7215C69.8587 59.622 61.8503 62.9367 53.4999 62.9367C45.1496 62.9367 37.1411 59.622 31.2357 53.7215L22.3237 44.8143H40.1477L35.6759 49.2836ZM53.4999 12.5847C54.3351 12.5847 55.1361 12.2531 55.7267 11.6629C56.3173 11.0726 56.6491 10.2721 56.6491 9.43731C56.6491 8.60256 56.3173 7.802 55.7267 7.21175C55.1361 6.62149 54.3351 6.28989 53.4999 6.28989C52.6647 6.28989 51.8637 6.62149 51.2732 7.21175C50.6826 7.802 50.3508 8.60256 50.3508 9.43731C50.3508 10.2721 50.6826 11.0726 51.2732 11.6629C51.8637 12.2531 52.6647 12.5847 53.4999 12.5847Z" fill="#F2F2F2"/>
<path d="M7.97222 91.9549C6.51732 91.9549 5.1812 91.6103 3.96384 90.921C2.74648 90.2316 1.7815 89.2801 1.0689 88.0663C0.3563 86.8376 0 85.4515 0 83.908C0 82.3795 0.3563 81.0084 1.0689 79.7946C1.7815 78.5659 2.74648 77.6068 3.96384 76.9175C5.1812 76.2282 6.51732 75.8836 7.97222 75.8836C9.44195 75.8836 10.7781 76.2282 11.9806 76.9175C13.198 77.6068 14.1555 78.5659 14.8533 79.7946C15.5659 81.0084 15.9222 82.3795 15.9222 83.908C15.9222 85.4515 15.5659 86.8376 14.8533 88.0663C14.1555 89.2801 13.198 90.2316 11.9806 90.921C10.7632 91.6103 9.42711 91.9549 7.97222 91.9549ZM7.97222 89.1452C8.9075 89.1452 9.73145 88.9355 10.444 88.5159C11.1566 88.0813 11.7134 87.4669 12.1142 86.6727C12.515 85.8785 12.7155 84.957 12.7155 83.908C12.7155 82.8591 12.515 81.945 12.1142 81.1658C11.7134 80.3716 11.1566 79.7647 10.444 79.3451C9.73145 78.9255 8.9075 78.7157 7.97222 78.7157C7.03693 78.7157 6.20556 78.9255 5.47811 79.3451C4.76551 79.7647 4.2088 80.3716 3.80796 81.1658C3.40712 81.945 3.2067 82.8591 3.2067 83.908C3.2067 84.957 3.40712 85.8785 3.80796 86.6727C4.2088 87.4669 4.76551 88.0813 5.47811 88.5159C6.20556 88.9355 7.03693 89.1452 7.97222 89.1452Z" fill="#F2F2F2"/>
<path d="M21.3592 75.1643V91.7976H18.2416V75.1643H21.3592Z" fill="#F2F2F2"/>
<path d="M23.6378 85.5264C23.6378 84.2676 23.8827 83.1513 24.3726 82.1772C24.8774 81.2032 25.5603 80.454 26.4214 79.9295C27.2824 79.405 28.24 79.1428 29.294 79.1428C30.0957 79.1428 30.8603 79.3226 31.5877 79.6823C32.3152 80.0269 32.8941 80.4914 33.3247 81.0759V75.1643H36.4868V91.7976H33.3247V89.9544C32.9387 90.5688 32.3968 91.0633 31.6991 91.4379C31.0013 91.8126 30.1922 91.9999 29.2718 91.9999C28.2326 91.9999 27.2824 91.7301 26.4214 91.1907C25.5603 90.6512 24.8774 89.8945 24.3726 88.9205C23.8827 87.9315 23.6378 86.8001 23.6378 85.5264ZM33.3469 85.5713C33.3469 84.8071 33.1985 84.1553 32.9016 83.6158C32.6047 83.0614 32.2038 82.6418 31.6991 82.3571C31.1943 82.0574 30.6524 81.9075 30.0734 81.9075C29.4944 81.9075 28.96 82.0499 28.4701 82.3346C27.9802 82.6193 27.5793 83.0389 27.2676 83.5933C26.9707 84.1328 26.8222 84.7771 26.8222 85.5264C26.8222 86.2756 26.9707 86.935 27.2676 87.5044C27.5793 88.0588 27.9802 88.4859 28.4701 88.7856C28.9748 89.0853 29.5093 89.2352 30.0734 89.2352C30.6524 89.2352 31.1943 89.0928 31.6991 88.8081C32.2038 88.5084 32.6047 88.0888 32.9016 87.5493C33.1985 86.9949 33.3469 86.3356 33.3469 85.5713Z" fill="#F2F2F2"/>
<path d="M50.2047 91.9549C49.121 91.9549 48.1412 91.7676 47.2653 91.393C46.4042 91.0184 45.7213 90.4789 45.2165 89.7746C44.7118 89.0703 44.452 88.2387 44.4371 87.2796H47.7774C47.822 87.924 48.0447 88.4335 48.4455 88.8081C48.8612 89.1827 49.4253 89.37 50.1379 89.37C50.8654 89.37 51.4369 89.1977 51.8526 88.853C52.2683 88.4934 52.4762 88.0289 52.4762 87.4594C52.4762 86.9949 52.3351 86.6128 52.053 86.3131C51.771 86.0134 51.4147 85.7811 50.9841 85.6163C50.5685 85.4365 49.9895 85.2417 49.2472 85.0319C48.2377 84.7322 47.4137 84.44 46.7753 84.1553C46.1518 83.8556 45.61 83.4135 45.1497 82.8291C44.7044 82.2297 44.4817 81.4355 44.4817 80.4465C44.4817 79.5174 44.7118 78.7082 45.172 78.0189C45.6322 77.3296 46.278 76.8051 47.1094 76.4455C47.9407 76.0709 48.8909 75.8836 49.9598 75.8836C51.5631 75.8836 52.8621 76.2807 53.8568 77.0749C54.8663 77.8541 55.4231 78.948 55.527 80.3566H52.0976C52.0679 79.8171 51.8378 79.3751 51.4072 79.0304C50.9916 78.6708 50.4348 78.491 49.7371 78.491C49.1284 78.491 48.6385 78.6483 48.2674 78.963C47.9111 79.2777 47.7329 79.7347 47.7329 80.3341C47.7329 80.7537 47.8665 81.1058 48.1337 81.3905C48.4158 81.6603 48.7573 81.885 49.1581 82.0649C49.5738 82.2297 50.1528 82.4245 50.8951 82.6493C51.9046 82.949 52.7285 83.2487 53.3669 83.5484C54.0053 83.8481 54.5546 84.2976 55.0148 84.897C55.475 85.4964 55.7051 86.2831 55.7051 87.2571C55.7051 88.0963 55.4899 88.8755 55.0593 89.5948C54.6288 90.3141 53.9979 90.891 53.1665 91.3255C52.3351 91.7451 51.3479 91.9549 50.2047 91.9549Z" fill="#F2F2F2"/>
<path d="M57.6063 85.5264C57.6063 84.2676 57.8513 83.1513 58.3412 82.1772C58.8459 81.2032 59.5214 80.454 60.3676 79.9295C61.2287 79.405 62.1863 79.1428 63.2403 79.1428C64.1608 79.1428 64.9624 79.3301 65.6453 79.7047C66.3431 80.0794 66.8998 80.5514 67.3155 81.1208V79.3451H70.4554V91.7976H67.3155V89.9769C66.9147 90.5613 66.3579 91.0483 65.6453 91.4379C64.9476 91.8126 64.1385 91.9999 63.218 91.9999C62.1788 91.9999 61.2287 91.7301 60.3676 91.1907C59.5214 90.6512 58.8459 89.8945 58.3412 88.9205C57.8513 87.9315 57.6063 86.8001 57.6063 85.5264ZM67.3155 85.5713C67.3155 84.8071 67.167 84.1553 66.8701 83.6158C66.5732 83.0614 66.1724 82.6418 65.6676 82.3571C65.1628 82.0574 64.621 81.9075 64.042 81.9075C63.463 81.9075 62.9286 82.0499 62.4386 82.3346C61.9487 82.6193 61.5479 83.0389 61.2361 83.5933C60.9392 84.1328 60.7908 84.7771 60.7908 85.5264C60.7908 86.2756 60.9392 86.935 61.2361 87.5044C61.5479 88.0588 61.9487 88.4859 62.4386 88.7856C62.9434 89.0853 63.4778 89.2352 64.042 89.2352C64.621 89.2352 65.1628 89.0928 65.6676 88.8081C66.1724 88.5084 66.5732 88.0888 66.8701 87.5493C67.167 86.9949 67.3155 86.3356 67.3155 85.5713Z" fill="#F2F2F2"/>
<path d="M75.0814 77.8616C74.5321 77.8616 74.0719 77.6893 73.7007 77.3446C73.3444 76.985 73.1663 76.5429 73.1663 76.0184C73.1663 75.494 73.3444 75.0594 73.7007 74.7148C74.0719 74.3551 74.5321 74.1753 75.0814 74.1753C75.6307 74.1753 76.0835 74.3551 76.4398 74.7148C76.8109 75.0594 76.9965 75.494 76.9965 76.0184C76.9965 76.5429 76.8109 76.985 76.4398 77.3446C76.0835 77.6893 75.6307 77.8616 75.0814 77.8616ZM76.6179 79.3451V91.7976H73.5003V79.3451H76.6179Z" fill="#F2F2F2"/>
<path d="M82.8158 75.1643V91.7976H79.6981V75.1643H82.8158Z" fill="#F2F2F2"/>
<path d="M91.3741 91.9999C90.1864 91.9999 89.1175 91.7376 88.1674 91.2132C87.2173 90.6737 86.4676 89.917 85.9183 88.9429C85.3838 87.9689 85.1166 86.8451 85.1166 85.5713C85.1166 84.2976 85.3912 83.1737 85.9405 82.1997C86.5047 81.2257 87.2692 80.4765 88.2342 79.952C89.1992 79.4125 90.2755 79.1428 91.4632 79.1428C92.6508 79.1428 93.7272 79.4125 94.6922 79.952C95.6571 80.4765 96.4143 81.2257 96.9636 82.1997C97.5277 83.1737 97.8098 84.2976 97.8098 85.5713C97.8098 86.8451 97.5203 87.9689 96.9413 88.9429C96.3772 89.917 95.6052 90.6737 94.6254 91.2132C93.6604 91.7376 92.5766 91.9999 91.3741 91.9999ZM91.3741 89.2576C91.9383 89.2576 92.4653 89.1228 92.9552 88.853C93.46 88.5683 93.8608 88.1487 94.1577 87.5943C94.4546 87.0399 94.6031 86.3655 94.6031 85.5713C94.6031 84.3875 94.2913 83.4809 93.6678 82.8516C93.0591 82.2072 92.3094 81.885 91.4186 81.885C90.5279 81.885 89.7782 82.2072 89.1695 82.8516C88.5757 83.4809 88.2787 84.3875 88.2787 85.5713C88.2787 86.7551 88.5683 87.6692 89.1472 88.3136C89.7411 88.9429 90.4834 89.2576 91.3741 89.2576Z" fill="#F2F2F2"/>
<path d="M103.214 81.2782C103.615 80.6188 104.135 80.1018 104.773 79.7272C105.426 79.3526 106.169 79.1653 107 79.1653V82.4695H106.176C105.196 82.4695 104.454 82.7017 103.949 83.1663C103.459 83.6308 103.214 84.44 103.214 85.5938V91.7976H100.097V79.3451H103.214V81.2782Z" fill="#F2F2F2"/>
</svg>
