<svg width="128" height="28" viewBox="0 0 128 28" fill="none" xmlns="http://www.w3.org/2000/svg">
<path d="M5.99596 21.9259C7.77154 23.688 10.0911 24.8118 12.5859 25.1185V14.0004H6.92929V11.1999H12.5859V8.16131C11.6423 7.831 10.8471 7.18103 10.3407 6.3263C9.83435 5.47156 9.64944 4.46709 9.81867 3.49042C9.98791 2.51374 10.5004 1.62775 11.2655 0.989034C12.0307 0.350317 12.9992 0 14 0C15.0008 0 15.9693 0.350317 16.7345 0.989034C17.4996 1.62775 18.0121 2.51374 18.1813 3.49042C18.3506 4.46709 18.1656 5.47156 17.6593 6.3263C17.1529 7.18103 16.3577 7.831 15.4141 8.16131V11.1999H21.0707V14.0004H15.4141V25.1185C17.9089 24.8118 20.2285 23.688 22.004 21.9259L19.996 19.9375H28L23.998 23.9002C21.3461 26.5253 17.7498 28 14 28C10.2502 28 6.65393 26.5253 4.00202 23.9002L0 19.9375H8.00404L5.99596 21.9259ZM14 5.59884C14.3751 5.59884 14.7347 5.45131 14.9999 5.18871C15.2652 4.92611 15.4141 4.56995 15.4141 4.19858C15.4141 3.8272 15.2652 3.47104 14.9999 3.20844C14.7347 2.94584 14.3751 2.79832 14 2.79832C13.6249 2.79832 13.2653 2.94584 13.0001 3.20844C12.7348 3.47104 12.5859 3.8272 12.5859 4.19858C12.5859 4.56995 12.7348 4.92611 13.0001 5.18871C13.2653 5.45131 13.6249 5.59884 14 5.59884Z" fill="#F2F2F2"/>
<path d="M42.8546 21.9596C41.6037 21.9596 40.4549 21.6503 39.4082 21.0315C38.3615 20.4128 37.5318 19.5586 36.9191 18.4691C36.3064 17.3661 36 16.1219 36 14.7364C36 13.3644 36.3064 12.1337 36.9191 11.0441C37.5318 9.94115 38.3615 9.08029 39.4082 8.46154C40.4549 7.84279 41.6037 7.53342 42.8546 7.53342C44.1183 7.53342 45.2671 7.84279 46.3011 8.46154C47.3478 9.08029 48.1711 9.94115 48.771 11.0441C49.3837 12.1337 49.6901 13.3644 49.6901 14.7364C49.6901 16.1219 49.3837 17.3661 48.771 18.4691C48.1711 19.5586 47.3478 20.4128 46.3011 21.0315C45.2544 21.6503 44.1056 21.9596 42.8546 21.9596ZM42.8546 19.4376C43.6588 19.4376 44.3672 19.2493 44.9799 18.8726C45.5926 18.4826 46.0713 17.9311 46.416 17.2182C46.7606 16.5053 46.9329 15.678 46.9329 14.7364C46.9329 13.7949 46.7606 12.9744 46.416 12.2749C46.0713 11.562 45.5926 11.0172 44.9799 10.6406C44.3672 10.264 43.6588 10.0757 42.8546 10.0757C42.0504 10.0757 41.3356 10.264 40.7102 10.6406C40.0975 11.0172 39.6188 11.562 39.2741 12.2749C38.9295 12.9744 38.7572 13.7949 38.7572 14.7364C38.7572 15.678 38.9295 16.5053 39.2741 17.2182C39.6188 17.9311 40.0975 18.4826 40.7102 18.8726C41.3356 19.2493 42.0504 19.4376 42.8546 19.4376Z" fill="#F2F2F2"/>
<path d="M54.3649 6.88777V21.8184H51.6844V6.88777H54.3649Z" fill="#F2F2F2"/>
<path d="M56.3241 16.1892C56.3241 15.0593 56.5347 14.0572 56.9559 13.1829C57.3899 12.3085 57.9771 11.636 58.7174 11.1652C59.4578 10.6944 60.2811 10.459 61.1874 10.459C61.8767 10.459 62.5341 10.6204 63.1595 10.9433C63.785 11.2526 64.2828 11.6696 64.653 12.1942V6.88777H67.3719V21.8184H64.653V20.1639C64.3211 20.7154 63.8552 21.1593 63.2553 21.4956C62.6553 21.8319 61.9597 22 61.1682 22C60.2747 22 59.4578 21.7579 58.7174 21.2736C57.9771 20.7894 57.3899 20.1101 56.9559 19.2358C56.5347 18.348 56.3241 17.3325 56.3241 16.1892ZM64.6721 16.2295C64.6721 15.5435 64.5445 14.9584 64.2892 14.4741C64.0339 13.9765 63.6893 13.5998 63.2553 13.3443C62.8213 13.0752 62.3554 12.9407 61.8575 12.9407C61.3597 12.9407 60.9002 13.0685 60.479 13.3241C60.0577 13.5797 59.7131 13.9563 59.445 14.454C59.1897 14.9382 59.0621 15.5166 59.0621 16.1892C59.0621 16.8617 59.1897 17.4536 59.445 17.9647C59.7131 18.4624 60.0577 18.8457 60.479 19.1148C60.913 19.3838 61.3725 19.5183 61.8575 19.5183C62.3554 19.5183 62.8213 19.3905 63.2553 19.1349C63.6893 18.8659 64.0339 18.4893 64.2892 18.005C64.5445 17.5074 64.6721 16.9155 64.6721 16.2295Z" fill="#F2F2F2"/>
<path d="M79.1667 21.9596C78.2349 21.9596 77.3924 21.7915 76.6393 21.4552C75.8989 21.119 75.3118 20.6347 74.8778 20.0025C74.4438 19.3703 74.2204 18.6238 74.2076 17.7629H77.0797C77.118 18.3413 77.3094 18.7987 77.6541 19.1349C78.0115 19.4712 78.4966 19.6393 79.1093 19.6393C79.7347 19.6393 80.2262 19.4847 80.5836 19.1753C80.941 18.8525 81.1197 18.4355 81.1197 17.9243C81.1197 17.5074 80.9984 17.1644 80.7559 16.8953C80.5134 16.6263 80.207 16.4178 79.8368 16.2699C79.4794 16.1084 78.9816 15.9336 78.3434 15.7453C77.4754 15.4763 76.7669 15.214 76.2181 14.9584C75.6819 14.6894 75.216 14.2926 74.8203 13.768C74.4374 13.2299 74.2459 12.517 74.2459 11.6293C74.2459 10.7953 74.4438 10.0689 74.8395 9.45019C75.2352 8.83144 75.7904 8.36066 76.5053 8.03783C77.2201 7.70156 78.037 7.53342 78.9561 7.53342C80.3347 7.53342 81.4516 7.88987 82.3068 8.60277C83.1748 9.30223 83.6535 10.2842 83.7428 11.5486H80.7942C80.7687 11.0643 80.5708 10.6675 80.2006 10.3581C79.8432 10.0353 79.3645 9.8739 78.7646 9.8739C78.2413 9.8739 77.82 10.0151 77.5009 10.2976C77.1946 10.5801 77.0414 10.9903 77.0414 11.5284C77.0414 11.905 77.1563 12.2211 77.386 12.4767C77.6286 12.7188 77.9221 12.9206 78.2668 13.082C78.6242 13.2299 79.122 13.4048 79.7603 13.6066C80.6282 13.8756 81.3367 14.1446 81.8856 14.4136C82.4344 14.6826 82.9067 15.0862 83.3024 15.6242C83.6981 16.1623 83.896 16.8684 83.896 17.7428C83.896 18.496 83.7109 19.1955 83.3407 19.8411C82.9706 20.4868 82.4281 21.0046 81.7132 21.3947C80.9984 21.7713 80.1496 21.9596 79.1667 21.9596Z" fill="#F2F2F2"/>
<path d="M85.5307 16.1892C85.5307 15.0593 85.7413 14.0572 86.1625 13.1829C86.5965 12.3085 87.1773 11.636 87.9049 11.1652C88.6452 10.6944 89.4686 10.459 90.3749 10.459C91.1663 10.459 91.8556 10.6272 92.4427 10.9634C93.0427 11.2997 93.5213 11.7234 93.8787 12.2346V10.6406H96.5785V21.8184H93.8787V20.1841C93.5341 20.7087 93.0554 21.1459 92.4427 21.4956C91.8428 21.8319 91.1471 22 90.3557 22C89.4622 22 88.6452 21.7579 87.9049 21.2736C87.1773 20.7894 86.5965 20.1101 86.1625 19.2358C85.7413 18.348 85.5307 17.3325 85.5307 16.1892ZM93.8787 16.2295C93.8787 15.5435 93.7511 14.9584 93.4958 14.4741C93.2405 13.9765 92.8959 13.5998 92.4619 13.3443C92.0279 13.0752 91.562 12.9407 91.0641 12.9407C90.5663 12.9407 90.1068 13.0685 89.6856 13.3241C89.2643 13.5797 88.9197 13.9563 88.6516 14.454C88.3963 14.9382 88.2687 15.5166 88.2687 16.1892C88.2687 16.8617 88.3963 17.4536 88.6516 17.9647C88.9197 18.4624 89.2643 18.8457 89.6856 19.1148C90.1196 19.3838 90.5791 19.5183 91.0641 19.5183C91.562 19.5183 92.0279 19.3905 92.4619 19.1349C92.8959 18.8659 93.2405 18.4893 93.4958 18.005C93.7511 17.5074 93.8787 16.9155 93.8787 16.2295Z" fill="#F2F2F2"/>
<path d="M100.556 9.30895C100.084 9.30895 99.688 9.15427 99.3688 8.84489C99.0625 8.52207 98.9093 8.12526 98.9093 7.65448C98.9093 7.18369 99.0625 6.79361 99.3688 6.48424C99.688 6.16141 100.084 6 100.556 6C101.028 6 101.418 6.16141 101.724 6.48424C102.043 6.79361 102.203 7.18369 102.203 7.65448C102.203 8.12526 102.043 8.52207 101.724 8.84489C101.418 9.15427 101.028 9.30895 100.556 9.30895ZM101.877 10.6406V21.8184H99.1965V10.6406H101.877Z" fill="#F2F2F2"/>
<path d="M107.206 6.88777V21.8184H104.526V6.88777H107.206Z" fill="#F2F2F2"/>
<path d="M114.565 22C113.543 22 112.624 21.7646 111.807 21.2938C110.991 20.8096 110.346 20.1303 109.874 19.256C109.414 18.3817 109.184 17.3728 109.184 16.2295C109.184 15.0862 109.421 14.0773 109.893 13.203C110.378 12.3287 111.035 11.6562 111.865 11.1854C112.695 10.7011 113.62 10.459 114.641 10.459C115.662 10.459 116.588 10.7011 117.418 11.1854C118.247 11.6562 118.898 12.3287 119.371 13.203C119.856 14.0773 120.098 15.0862 120.098 16.2295C120.098 17.3728 119.849 18.3817 119.351 19.256C118.866 20.1303 118.203 20.8096 117.36 21.2938C116.53 21.7646 115.599 22 114.565 22ZM114.565 19.5385C115.05 19.5385 115.503 19.4174 115.924 19.1753C116.358 18.9197 116.703 18.5431 116.958 18.0454C117.213 17.5477 117.341 16.9424 117.341 16.2295C117.341 15.1669 117.073 14.3531 116.537 13.7881C116.013 13.2098 115.369 12.9206 114.603 12.9206C113.837 12.9206 113.192 13.2098 112.669 13.7881C112.159 14.3531 111.903 15.1669 111.903 16.2295C111.903 17.2921 112.152 18.1127 112.65 18.691C113.161 19.256 113.799 19.5385 114.565 19.5385Z" fill="#F2F2F2"/>
<path d="M124.745 12.3758C125.09 11.7839 125.536 11.3199 126.085 10.9836C126.647 10.6473 127.285 10.4792 128 10.4792V13.4451H127.292C126.449 13.4451 125.811 13.6536 125.377 14.0706C124.956 14.4876 124.745 15.214 124.745 16.2497V21.8184H122.064V10.6406H124.745V12.3758Z" fill="#F2F2F2"/>
</svg>
